<svg xmlns="http://www.w3.org/2000/svg" version="1.1" xmlns:xlink="http://www.w3.org/1999/xlink" xmlns:svgjs="http://svgjs.dev/svgjs" width="1024" height="1024"><svg width="1024" height="1024" viewBox="0 0 1024 1024" version="1.1" id="SvgjsSvg1030" sodipodi:docname="pastecal.logo.svg" inkscape:version="1.3 (0e150ed, 2023-07-21)" xmlns:inkscape="http://www.inkscape.org/namespaces/inkscape" xmlns:sodipodi="http://sodipodi.sourceforge.net/DTD/sodipodi-0.dtd" xmlns="http://www.w3.org/2000/svg" xmlns:svg="http://www.w3.org/2000/svg">
  <defs id="SvgjsDefs1029"></defs>
  <sodipodi:namedview id="SvgjsSodipodi:namedview1028" pagecolor="#ffffff" bordercolor="#000000" borderopacity="0.25" inkscape:showpageshadow="2" inkscape:pageopacity="0.0" inkscape:pagecheckerboard="0" inkscape:deskcolor="#d1d1d1" inkscape:zoom="0.23046875" inkscape:cx="512" inkscape:cy="512" inkscape:window-width="1312" inkscape:window-height="449" inkscape:window-x="1704" inkscape:window-y="612" inkscape:window-maximized="0" inkscape:current-layer="svg2"></sodipodi:namedview>
  <path d="m 633.79096,28.116285 c -19.24203,2.802868 -34.22472,20.642816 -34.22472,40.752375 0,11.238004 15.18033,94.35576 18.37718,100.6221 3.46477,6.79295 13.33784,15.75603 21.12564,19.1797 9.25756,4.06835 22.76654,3.87467 32.18858,-0.46427 8.73625,-4.02192 17.26424,-12.28991 21.38299,-20.72904 5.31258,-10.88649 4.80719,-19.55641 -4.00866,-68.804946 -6.54621,-36.576597 -8.50544,-45.16163 -11.60013,-50.848283 -8.09556,-14.873912 -24.64483,-22.416326 -43.24088,-19.707636 m 92.19493,66.677261 c -8.89677,1.574541 -16.49224,3.176941 -16.87691,3.561628 -0.38469,0.384673 1.07046,10.216606 3.23397,21.848586 2.16351,11.63197 3.93834,24.77084 3.94365,29.19733 0.02,14.91902 -6.14693,29.97334 -17.25494,42.12795 -26.56427,29.06602 -74.07643,24.97114 -95.37453,-8.21892 -5.75166,-8.96309 -7.67108,-15.27849 -12.10685,-39.83975 -2.1675,-11.99676 -4.24079,-22.11257 -4.6069,-22.47868 -0.6261,-0.6261 -61.95629,9.98182 -183.69742,31.77337 -28.81795,5.1574 -52.60587,9.58654 -52.86322,9.8399 -0.25733,0.2547 1.44588,11.09608 3.78315,24.09301 4.58037,25.47256 4.71037,34.52717 0.68446,47.82255 -4.77403,15.76665 -20.71576,32.36898 -37.39634,38.94572 -11.04037,4.35353 -32.21775,4.37476 -43.19577,0.0425 -15.58227,-6.14962 -29.781,-20.35099 -35.42387,-35.43052 -1.53077,-4.09353 -4.6666,-18.0933 -6.96806,-31.11145 l -4.18374,-23.67119 -4.07762,0.72027 c -33.07865,5.83923 -43.99831,10.43019 -57.91714,24.34903 -13.93477,13.93473 -22.43358,34.03102 -22.43358,53.04358 0,3.38519 6.00236,39.83577 13.33917,81.00334 7.33548,41.16757 18.04555,101.41268 23.79986,133.8785 19.59887,110.59596 23.5213,132.6422 57.82826,324.98965 22.99998,128.94792 21.86318,123.68443 30.31955,140.47644 14.1072,28.01145 42.81108,50.55253 76.86336,60.35791 34.5033,9.9354 69.01057,7.6737 102.5097,-6.71734 10.46864,-4.49678 42.62008,-23.25866 80.68499,-47.08242 8.75481,-5.47971 36.51159,-22.39509 61.6817,-37.59135 25.17012,-15.19492 55.91149,-34.00188 68.31416,-41.79367 21.63237,-13.59121 36.79943,-22.82355 98.16013,-59.75565 88.84554,-53.47339 141.26571,-85.60757 146.09147,-89.55521 7.10998,-5.81664 14.2226,-16.61823 16.91671,-25.69407 4.1015,-13.81007 5.42135,-4.76609 -30.91248,-211.6651 -44.28085,-252.14422 -58.65202,-332.50288 -60.7293,-339.58103 -4.9982,-17.03874 -21.07258,-35.24082 -38.20419,-43.262084 -18.12382,-8.485555 -35.13337,-9.715206 -63.93143,-4.62282 m -453.95483,2.822767 c -19.01919,5.321867 -30.84882,20.454447 -30.97086,39.616887 -0.0636,9.96858 12.18646,82.63095 15.52655,92.09942 6.21991,17.62771 20.76617,28.00482 39.33305,28.05789 8.5943,0.0252 11.24861,-0.56111 18.12911,-3.99804 13.91883,-6.95611 22.48662,-19.29112 23.81842,-34.29105 0.73886,-8.3277 -12.53266,-87.57742 -16.45774,-98.2729 -2.9143,-7.94301 -12.26472,-17.67678 -20.30058,-21.133605 -8.79197,-3.781817 -20.09896,-4.590974 -29.07795,-2.078602 M 787.92759,266.08566 c -30.2121,5.6747 -272.31081,48.79354 -379.37568,67.56865 -31.73623,5.56461 -89.80193,16.05848 -129.03416,23.31833 -39.2322,7.25856 -72.71807,13.19858 -74.41333,13.19858 -3.75263,0 -6.6948,-18.91441 22.58876,145.25047 12.75419,71.49772 28.50358,159.97052 34.99941,196.60548 6.49447,36.63495 12.6401,68.59801 13.65618,71.02814 2.37576,5.68665 8.90472,11.15047 15.42044,12.9054 5.25421,1.41404 46.20955,-5.56329 287.23646,-48.93814 36.47843,-6.56479 111.98879,-20.00874 167.80078,-29.87782 55.812,-9.86774 104.51402,-18.51909 108.22686,-19.22478 15.31299,-2.91032 22.9907,-8.43647 25.69938,-18.49524 1.1262,-4.18374 -0.0716,-13.14018 -7.30895,-54.65795 -4.7621,-27.30842 -13.66946,-78.60372 -19.79385,-113.9878 -6.12574,-35.38407 -18.34137,-105.01013 -27.14526,-154.72425 -8.8039,-49.71415 -16.00674,-91.05017 -16.00674,-91.85932 0,-2.00432 -3.28041,-1.72841 -22.5503,1.89025 M 685.12473,366.725 c -14.25046,4.51935 -25.91426,14.77973 -32.23632,28.36032 -3.03499,6.51969 -3.53375,9.35439 -3.55498,20.1865 -0.0212,10.93557 0.44703,13.60711 3.54173,20.20904 4.91331,10.48457 9.32653,15.90859 17.39821,21.383 25.67287,17.41281 59.80341,7.95892 72.98738,-20.21701 9.97917,-21.32463 3.55232,-48.3505 -14.7028,-61.82099 -11.77523,-8.68981 -30.53974,-12.1891 -43.43322,-8.10086 m -170.0558,32.36896 c -13.40284,4.78067 -22.63785,13.23836 -29.25305,26.78976 -3.12918,6.40959 -3.56693,8.91004 -3.60273,20.58445 -0.0384,12.35226 0.26263,13.90425 4.26995,22.04889 5.29535,10.76312 13.47581,18.55226 25.29614,24.08638 7.74669,3.62662 10.27896,4.14926 20.13609,4.14926 9.8651,0 12.38676,-0.52131 20.16396,-4.16121 39.34628,-18.42359 39.2866,-72.61595 -0.10217,-91.468 -9.96857,-4.77004 -26.65182,-5.68799 -36.90822,-2.02953 m -162.89274,28.56062 c -15.89665,4.02722 -27.10281,13.36305 -34.29901,28.57522 -3.73141,7.8873 -4.14793,10.0057 -4.07231,20.72372 0.0623,9.09972 0.79323,13.75039 3.07082,19.56173 4.15853,10.6066 14.0674,21.07127 25.09318,26.50192 8.09422,3.98609 9.85712,4.34291 21.47185,4.34291 11.61606,0 13.37632,-0.35682 21.49973,-4.3522 18.6584,-9.17665 30.76657,-30.44689 28.41736,-49.92107 -1.292,-10.71934 -3.18357,-15.94969 -8.8238,-24.39544 -11.24596,-16.83978 -33.54954,-25.80153 -52.35782,-21.03679 m 365.50724,99.16429 c -14.4428,2.83206 -27.75545,13.30999 -35.43183,27.88942 -3.46744,6.58602 -3.75928,8.27331 -3.75928,21.73187 0,13.21447 0.34224,15.28911 3.62928,21.98123 10.00836,20.38018 32.1103,31.88349 53.63921,27.91594 11.85084,-2.18339 20.27006,-6.92293 28.94664,-16.29457 9.40081,-10.15428 12.98896,-19.43703 12.98896,-33.6026 0,-14.16425 -3.58815,-23.44834 -12.98633,-33.59862 -7.9284,-8.56514 -17.68738,-14.11252 -28.36429,-16.12481 -8.12473,-1.53077 -10.3917,-1.51882 -18.66236,0.10217 m -172.71012,32.16204 c -13.78089,5.1335 -24.15269,14.51576 -30.12322,27.24872 -3.04561,6.49714 -3.49529,9.15942 -3.49529,20.71975 0,11.81105 0.41784,14.16955 3.81233,21.5183 4.67189,10.11314 15.02247,20.30986 25.69805,25.31204 6.66826,3.12522 9.22175,3.56693 20.23293,3.49795 10.61853,-0.0663 13.74904,-0.6115 19.89732,-3.46611 15.27452,-7.09008 25.96601,-21.07658 29.22918,-38.24 3.97548,-20.90281 -6.90306,-42.43303 -26.83752,-53.11659 -7.55037,-4.04577 -9.58256,-4.51934 -20.9625,-4.88014 -8.29718,-0.26397 -14.25842,0.21622 -17.45128,1.40608 m -161.08477,28.77551 c -24.67798,4.89208 -41.89713,28.14012 -39.94587,53.93369 2.91033,38.4801 46.12599,59.5023 77.8264,37.85929 26.22202,-17.9036 30.1617,-55.39413 8.12209,-77.29181 -13.11101,-13.02744 -28.68133,-17.93545 -46.00262,-14.50117" stroke="none" fill="#a4c4dc" fill-rule="evenodd" id="SvgjsPath1027" style="fill:#3f51b5;fill-opacity:1;stroke-width:1.32648"></path>
</svg><style>@media (prefers-color-scheme: light) { :root { filter: none; } }
@media (prefers-color-scheme: dark) { :root { filter: contrast(0.7407407407407407) brightness(2); } }
</style></svg>