<?xml version="1.0" standalone="no"?>
<!DOCTYPE svg PUBLIC "-//W3C//DTD SVG 20010904//EN"
 "http://www.w3.org/TR/2001/REC-SVG-20010904/DTD/svg10.dtd">
<svg version="1.0" xmlns="http://www.w3.org/2000/svg"
 width="405.000000pt" height="405.000000pt" viewBox="0 0 405.000000 405.000000"
 preserveAspectRatio="xMidYMid meet">
<metadata>
Created by potrace 1.14, written by Peter Selinger 2001-2017
</metadata>
<g transform="translate(0.000000,405.000000) scale(0.100000,-0.100000)"
fill="#000000" stroke="none">
<path d="M1197 3993 c-10 -20 -13 -67 -12 -165 1 -75 -2 -135 -7 -132 -4 3 -8
2 -8 -3 0 -4 -22 -8 -50 -8 -27 0 -50 4 -50 8 0 4 -9 3 -19 -3 -14 -7 -22 -7
-26 0 -5 8 -11 8 -19 1 -7 -6 -16 -8 -20 -4 -8 9 -46 12 -46 4 0 -5 -39 -6
-100 -2 -12 1 -15 20 -14 114 0 162 -11 185 -83 163 -23 -6 -34 -16 -35 -30
-1 -12 -2 -28 -3 -36 0 -8 -4 -20 -8 -27 -4 -6 -3 -15 3 -18 6 -4 7 -12 3 -18
-10 -14 -10 -128 0 -144 8 -13 -28 -47 -42 -39 -5 4 -13 2 -16 -4 -5 -8 -11
-8 -19 -1 -7 6 -16 8 -19 5 -5 -5 -72 -13 -157 -18 -14 0 -28 -5 -32 -11 -5
-6 -8 -5 -8 4 0 9 -4 10 -12 3 -7 -5 -38 -12 -68 -15 -83 -8 -153 -26 -175
-45 -34 -30 -63 -77 -69 -113 -3 -19 -8 -45 -12 -59 -3 -14 -7 -45 -9 -70 -2
-25 -6 -63 -9 -85 -3 -22 -8 -105 -11 -185 -3 -80 -7 -157 -9 -172 -2 -16 1
-28 7 -28 6 0 6 -4 0 -12 -10 -14 -14 -172 -17 -829 -2 -228 -6 -421 -10 -427
-4 -7 -3 -12 3 -12 9 0 5 -49 -4 -59 -2 -2 0 -12 5 -22 7 -12 7 -20 0 -24 -7
-4 -7 -13 0 -26 6 -11 7 -19 1 -19 -5 0 -6 -14 -1 -34 4 -19 5 -37 3 -40 -9
-9 -9 -146 0 -146 5 0 5 -5 1 -12 -10 -17 -11 -298 -1 -298 5 0 5 -5 1 -12 -9
-14 -9 -153 1 -167 3 -6 2 -11 -2 -11 -5 0 -9 -11 -9 -25 0 -14 3 -25 8 -25 4
0 3 -12 -3 -27 -6 -17 -6 -28 0 -32 6 -4 6 -12 1 -21 -5 -8 -5 -21 1 -31 6
-11 5 -20 -1 -24 -5 -3 -7 -11 -4 -18 9 -24 10 -92 2 -109 -5 -10 -5 -18 -1
-18 4 0 9 -23 10 -51 1 -28 11 -69 22 -92 20 -43 71 -107 71 -91 0 5 4 2 10
-6 5 -9 33 -17 72 -20 35 -4 585 -5 1223 -3 1417 4 1475 4 1475 18 0 7 3 7 8
0 8 -12 152 -14 152 -2 0 4 8 4 17 -2 10 -5 26 -5 40 0 13 5 25 4 28 -1 4 -6
14 -7 23 -2 9 5 28 7 42 5 39 -5 42 -5 91 2 l46 7 1 -31 c2 -68 12 -76 87 -73
11 1 55 2 98 3 42 1 81 7 86 13 10 12 8 242 -2 252 -3 4 -2 16 4 26 7 14 8 23
1 30 -7 7 -7 19 -2 33 5 13 7 25 5 27 -9 8 -14 392 -5 403 6 7 70 10 196 9
103 -1 193 0 201 3 7 3 13 13 13 22 0 22 -23 71 -32 71 -5 0 -8 7 -8 15 0 8
-4 15 -10 15 -5 0 -10 6 -10 13 0 7 -13 28 -30 47 -16 19 -29 39 -30 43 -1 25
-70 66 -95 57 -11 -4 -23 -6 -27 -3 -5 2 -13 1 -19 -3 -7 -4 -31 -8 -55 -10
-34 -2 -44 1 -47 14 -2 9 -3 85 -2 167 1 83 -1 154 -3 159 -7 13 -5 103 2 115
4 6 3 11 -3 11 -7 0 -7 8 -1 24 5 13 6 26 3 29 -4 5 -13 238 -16 460 -1 42 -5
77 -10 77 -4 0 -5 5 -1 12 11 17 12 78 2 84 -5 3 -4 13 1 22 6 11 5 24 -1 36
-8 14 -8 17 2 11 9 -6 9 -3 1 13 -7 14 -8 23 -1 27 6 4 7 11 3 18 -3 6 -8 157
-9 336 -3 392 -11 613 -23 663 -5 20 -6 39 -4 42 3 2 1 11 -3 18 -5 7 -10 24
-12 38 -2 14 -10 33 -19 42 -9 10 -13 18 -10 18 4 0 -3 12 -16 26 -25 29 -103
68 -117 59 -6 -3 -10 -2 -10 4 0 5 -8 10 -17 10 -23 0 -108 9 -108 11 0 1 -20
3 -45 5 -162 12 -192 15 -199 19 -4 3 -23 6 -42 7 l-34 3 -2 100 c-1 91 -7
162 -14 176 -1 3 -3 10 -4 15 -7 35 -19 45 -57 45 -48 0 -66 -16 -74 -67 -3
-21 -8 -41 -11 -45 -2 -5 0 -8 5 -8 5 0 9 -7 9 -15 0 -8 -4 -15 -9 -15 -5 0
-7 -4 -4 -8 3 -5 6 -41 7 -80 2 -75 -12 -112 -36 -92 -7 5 -80 9 -174 9 -117
-1 -166 3 -175 12 -8 9 -8 10 4 4 12 -7 13 -6 5 6 -11 15 -13 189 -2 206 4 6
3 13 0 17 -4 4 -8 16 -10 28 -6 35 -23 48 -64 46 -68 -2 -74 -17 -73 -190 1
-84 -3 -144 -7 -136 -5 7 -9 9 -9 3 0 -6 -68 -10 -182 -10 -152 0 -185 3 -193
15 -5 8 -10 75 -11 148 -1 77 -7 138 -13 146 -12 14 -99 11 -115 -5 -15 -14
-17 -35 -17 -164 0 -66 -2 -127 -5 -136 -3 -11 -15 -15 -42 -13 -20 1 -37 3
-37 4 0 7 -76 3 -79 -5 -3 -6 -5 -6 -5 0 -1 7 -44 10 -121 8 -69 -1 -118 2
-115 7 3 5 1 11 -5 15 -6 4 -8 10 -5 15 3 4 5 59 4 121 0 63 0 122 0 132 0 10
-7 21 -15 24 -7 3 -11 9 -8 14 3 5 -20 9 -50 9 -51 0 -57 -2 -69 -27z"/>
</g>
</svg>
