<?xml version="1.0" encoding="utf-8"?><svg xml:space="preserve" viewBox="0 0 100 100" y="0" x="0" xmlns="http://www.w3.org/2000/svg" id="圖層_1" version="1.1" width="100px" height="100px" xmlns:xlink="http://www.w3.org/1999/xlink" style="width:100%;height:100%;background-size:initial;background-position-y:initial;background-position-x:initial;background-origin:initial;background-color:initial;background-clip:initial;background-attachment:initial;animation-play-state:paused" ><g class="ldl-scale" style="transform-origin-z:0px;transform-origin-y:50%;transform-origin-x:50%;transform:rotate(0deg) scale(1, 1);animation-play-state:paused" ><path fill="#333" d="M85.7 18.3H14.3c-3.7 0-6.8 3-6.8 6.8v56.4c0 3.7 3 6.8 6.8 6.8h71.5c3.7 0 6.8-3 6.8-6.8V25.1c-.1-3.7-3.1-6.8-6.9-6.8z" style="fill:rgb(25, 29, 58);animation-play-state:paused" ></path>
<g style="animation-play-state:paused" ><path fill="#e0e0e0" d="M29.7 35.9c-4.3 0-7.8-3.5-7.8-7.8V17.6c0-4.3 3.5-7.8 7.8-7.8s7.8 3.5 7.8 7.8v10.6c0 4.3-3.5 7.7-7.8 7.7z" style="fill:rgb(104, 156, 197);animation-play-state:paused" ></path>
<path fill="#333" d="M29.7 11.8c3.2 0 5.8 2.6 5.8 5.8v10.6c0 3.2-2.6 5.8-5.8 5.8s-5.8-2.6-5.8-5.8V17.6c0-3.2 2.6-5.8 5.8-5.8m0-4c-5.4 0-9.8 4.4-9.8 9.8v10.6c0 5.4 4.4 9.8 9.8 9.8s9.8-4.4 9.8-9.8V17.6c0-5.4-4.4-9.8-9.8-9.8z" style="fill:rgb(25, 29, 58);animation-play-state:paused" ></path></g>
<g style="animation-play-state:paused" ><path fill="#e0e0e0" d="M69.6 35.9c-4.3 0-7.8-3.5-7.8-7.8V17.6c0-4.3 3.5-7.8 7.8-7.8s7.8 3.5 7.8 7.8v10.6c0 4.3-3.5 7.7-7.8 7.7z" style="fill:rgb(104, 156, 197);animation-play-state:paused" ></path>
<path fill="#333" d="M69.6 11.8c3.2 0 5.8 2.6 5.8 5.8v10.6c0 3.2-2.6 5.8-5.8 5.8-3.2 0-5.8-2.6-5.8-5.8V17.6c0-3.2 2.6-5.8 5.8-5.8m0-4c-5.4 0-9.8 4.4-9.8 9.8v10.6c0 5.4 4.4 9.8 9.8 9.8s9.8-4.4 9.8-9.8V17.6c0-5.4-4.4-9.8-9.8-9.8z" style="fill:rgb(25, 29, 58);animation-play-state:paused" ></path></g>
<path d="M44.2 71.7h11.6v10.7H44.2z" fill="#fff" style="fill:rgb(147, 219, 233);animation-play-state:paused" ></path>
<path d="M28.8 71.7h11.6v10.7H28.8z" fill="#fff" style="fill:rgb(147, 219, 233);animation-play-state:paused" ></path>
<path d="M44.2 42.7h11.6v10.6H44.2z" fill="#fff" style="fill:rgb(147, 219, 233);animation-play-state:paused" ></path>
<path d="M59.7 57.2h11.6v10.7H59.7z" fill="#e15b64" style="fill:rgb(59, 67, 104);animation-play-state:paused" ></path>
<path d="M59.7 71.7h11.6v10.7H59.7z" fill="#fff" style="fill:rgb(147, 219, 233);animation-play-state:paused" ></path>
<path d="M13.3 57.2h11.6v10.7H13.3z" fill="#fff" style="fill:rgb(147, 219, 233);animation-play-state:paused" ></path>
<path d="M28.8 42.7h11.6v10.6H28.8z" fill="#fff" style="fill:rgb(147, 219, 233);animation-play-state:paused" ></path>
<path d="M59.7 42.7h11.6v10.6H59.7z" fill="#f8b26a" style="fill:rgb(94, 111, 163);animation-play-state:paused" ></path>
<path fill="#fff" d="M24.9 42.7H14.3c-.3 0-.7 0-1-.1v10.7h11.6V42.7z" style="fill:rgb(147, 219, 233);animation-play-state:paused" ></path>
<path d="M75.1 57.2h11.6v10.7H75.1z" fill="#fff" style="fill:rgb(147, 219, 233);animation-play-state:paused" ></path>
<path fill="#fff" d="M24.9 71.7H13.3v9.8c0 .5.4.9.9 1h10.7V71.7z" style="fill:rgb(147, 219, 233);animation-play-state:paused" ></path>
<path d="M44.2 57.2h11.6v10.7H44.2z" fill="#e15b64" style="fill:rgb(59, 67, 104);animation-play-state:paused" ></path>
<path fill="#fff" d="M86.7 81.5v-9.8H75.1v10.7h10.7c.5 0 .9-.4.9-.9z" style="fill:rgb(147, 219, 233);animation-play-state:paused" ></path>
<path d="M28.8 57.2h11.6v10.7H28.8z" fill="#e15b64" style="fill:rgb(59, 67, 104);animation-play-state:paused" ></path>
<path fill="#f8b26a" d="M75.1 42.7v10.6h11.6V42.6c-.3.1-.6.1-1 .1H75.1z" style="fill:rgb(94, 111, 163);animation-play-state:paused" ></path>
<metadata xmlns:d="https://loading.io/stock/" style="animation-play-state:paused" ><d:name style="animation-play-state:paused" >calendar</d:name>


<d:tags style="animation-play-state:paused" >schedule,date,time,plan,agenda,journal,calendar,web application</d:tags>


<d:license style="animation-play-state:paused" >by</d:license>


<d:slug style="animation-play-state:paused" >qmuk90</d:slug></metadata></g><!-- generated by https://loading.io/ --></svg>