<svg width="600" height="400" viewBox="0 0 600 400" xmlns="http://www.w3.org/2000/svg">
  <rect width="600" height="400" fill="#f0f0f0"/>
  <rect x="50" y="50" width="500" height="300" fill="white" stroke="#ccc" stroke-width="2"/>
  <!-- Calendar Header -->
  <text x="300" y="80" font-family="Arial, sans-serif" font-size="20" fill="#333" text-anchor="middle">October 2025</text>
  <!-- Day Names -->
  <text x="85" y="110" font-family="Arial, sans-serif" font-size="14" fill="#666" text-anchor="middle">Sun</text>
  <text x="155" y="110" font-family="Arial, sans-serif" font-size="14" fill="#666" text-anchor="middle">Mon</text>
  <text x="225" y="110" font-family="Arial, sans-serif" font-size="14" fill="#666" text-anchor="middle">Tue</text>
  <text x="295" y="110" font-family="Arial, sans-serif" font-size="14" fill="#666" text-anchor="middle">Wed</text>
  <text x="365" y="110" font-family="Arial, sans-serif" font-size="14" fill="#666" text-anchor="middle">Thu</text>
  <text x="435" y="110" font-family="Arial, sans-serif" font-size="14" fill="#666" text-anchor="middle">Fri</text>
  <text x="505" y="110" font-family="Arial, sans-serif" font-size="14" fill="#666" text-anchor="middle">Sat</text>
  <!-- Calendar Grid -->
  <g stroke="#ccc" stroke-width="1">
    <path d="M50 120 H550"/>
    <path d="M120 90 V350"/>
    <path d="M190 90 V350"/>
    <path d="M260 90 V350"/>
    <path d="M330 90 V350"/>
    <path d="M400 90 V350"/>
    <path d="M470 90 V350"/>
    <path d="M50 170 H550"/>
    <path d="M50 220 H550"/>
    <path d="M50 270 H550"/>
    <path d="M50 320 H550"/>
  </g>
  <!-- Dates -->
  <text x="85" y="140" font-family="Arial, sans-serif" font-size="12" fill="#333" text-anchor="middle">28</text>
  <text x="155" y="140" font-family="Arial, sans-serif" font-size="12" fill="#333" text-anchor="middle">29</text>
  <text x="225" y="140" font-family="Arial, sans-serif" font-size="12" fill="#333" text-anchor="middle">30</text>
  <text x="295" y="140" font-family="Arial, sans-serif" font-size="12" fill="#333" text-anchor="middle">1</text>
  <text x="365" y="140" font-family="Arial, sans-serif" font-size="12" fill="#333" text-anchor="middle">2</text>
  <text x="435" y="140" font-family="Arial, sans-serif" font-size="12" fill="#333" text-anchor="middle">3</text>
  <text x="505" y="140" font-family="Arial, sans-serif" font-size="12" fill="#333" text-anchor="middle">4</text>
  <!-- Event -->
  <rect x="265" y="180" width="60" height="20" rx="3" fill="#007bff"/>
  <text x="295" y="194" font-family="Arial, sans-serif" font-size="12" fill="white" text-anchor="middle">My Event</text>
</svg>
